<svg xmlns="http://www.w3.org/2000/svg" width="20" height="18" viewBox="0 0 20 18">
    <g fill="none" fill-rule="evenodd">
        <g fill="#00416D" fill-rule="nonzero">
            <g>
                <g>
                    <g>
                        <path d="M20 12.94c0 2.79-2.24 5.05-5.03 5.06H5.05C2.27 18 0 15.75 0 12.96v-.01S.006 8.526.014 6.3c.001-.418.481-.652.808-.392 2.376 1.885 6.625 5.322 6.678 5.367.71.569 1.61.89 2.53.89.92 0 1.82-.321 2.53-.901.053-.035 4.207-3.37 6.619-5.285.328-.261.81-.027.811.39.01 2.209.01 6.573.01 6.573" opacity=".4" transform="translate(-1169 -6767) translate(984 6694) translate(0 72) translate(185 1)"/>
                        <path d="M19.476 2.674C18.61 1.042 16.906 0 15.03 0H5.05C3.174 0 1.47 1.042.604 2.674c-.194.365-.102.82.221 1.078L8.25 9.691c.52.42 1.15.629 1.78.629h.02c.63 0 1.26-.209 1.78-.629l7.425-5.939c.323-.258.415-.713.221-1.078" transform="translate(-1169 -6767) translate(984 6694) translate(0 72) translate(185 1)"/>
                    </g>
                </g>
            </g>
        </g>
    </g>
</svg>
