<svg xmlns="http://www.w3.org/2000/svg" width="110" height="80" viewBox="0 0 110 80">
    <g fill="none" fill-rule="evenodd">
        <g>
            <g>
                <path fill="#FFF" d="M0 80l.348-.003c10.77-.184 19.467-8.882 19.65-19.653L20 60V35C20 15.67 35.67 0 55 0s35 15.67 35 35v25l.003.344c.182 10.771 8.878 19.47 19.649 19.653L110 80H0z" transform="translate(-665 -6836) translate(665 6836)"/>
                <g fill="#F9A44A">
                    <path d="M4.81 5.202l-.327-3.699C4.483.673 5.163 0 6 0c.839 0 1.518.673 1.518 1.503l-.327 3.7c0 .65-.533 1.179-1.19 1.179-.66 0-1.191-.528-1.191-1.18" opacity=".4" transform="translate(-665 -6836) translate(665 6836) matrix(1 0 0 -1 49 53)"/>
                    <path d="M4.87 17.625c-.059-.058-.305-.274-.51-.477-1.283-1.184-3.382-4.274-4.024-5.89-.102-.246-.32-.867-.336-1.2 0-.317.074-.62.22-.91.203-.36.525-.649.904-.808.262-.101 1.05-.26 1.064-.26.86-.159 2.259-.245 3.805-.245 1.472 0 2.814.086 3.688.216.016.014.993.173 1.328.347.612.317.991.938.991 1.602v.058c-.014.433-.394 1.343-.408 1.343-.642 1.53-2.639 4.548-3.966 5.761 0 0-.342.343-.554.491-.306.231-.685.347-1.064.347-.423 0-.817-.13-1.138-.375" transform="translate(-665 -6836) translate(665 6836) matrix(1 0 0 -1 49 53)"/>
                </g>
            </g>
        </g>
    </g>
</svg>
