<svg xmlns="http://www.w3.org/2000/svg" width="20" height="20" viewBox="0 0 20 20">
    <g fill="none" fill-rule="evenodd">
        <g fill="#FFF">
            <g>
                <g>
                    <g>
                        <path d="M13.753 0C17.59 0 20 2.392 20 6.253v2.569c0 .417-.339.756-.756.756h-.009V9.56c-.422 0-.764-.341-.765-.763V6.253c0-3.053-1.67-4.723-4.714-4.723h-7.5C3.21 1.53 1.53 3.21 1.53 6.253v7.5c0 3.034 1.68 4.714 4.723 4.714h7.5c3.043 0 4.714-1.68 4.714-4.714 0-.422.342-.765.765-.765s.765.343.765.765C20 17.608 17.608 20 13.756 20H6.253C2.392 20 0 17.608 0 13.756v-7.5C0 2.392 2.392 0 6.253 0zm-.723 7.096c.293-.293.768-.293 1.06 0 .294.293.294.768 0 1.062l-4.746 4.747c-.141.14-.332.219-.53.219-.2 0-.39-.08-.531-.22L5.91 10.532c-.293-.293-.293-.769 0-1.062.293-.292.768-.292 1.06 0l1.844 1.845z" transform="translate(-910 -644) translate(470 321) translate(0 283) translate(400) translate(40 40)"/>
                    </g>
                </g>
            </g>
        </g>
    </g>
</svg>
